<mxfile host="app.diagrams.net" agent="Mozilla/5.0 (Windows NT 10.0; Win64; x64) AppleWebKit/537.36 (KHTML, like Gecko) Chrome/135.0.0.0 Safari/537.36" version="26.2.14">
  <diagram name="Page-1" id="9f46799a-70d6-7492-0946-bef42562c5a5">
    <mxGraphModel dx="1226" dy="661" grid="1" gridSize="10" guides="1" tooltips="1" connect="1" arrows="1" fold="1" page="1" pageScale="1" pageWidth="1100" pageHeight="850" background="none" math="0" shadow="0">
      <root>
        <mxCell id="0" />
        <mxCell id="1" parent="0" />
        <mxCell id="pcOHJDhmzTpbrukKIffP-1" value="BenutzeroberflÃ¤che" style="rounded=0;whiteSpace=wrap;html=1;" vertex="1" parent="1">
          <mxGeometry x="490" y="10" width="120" height="60" as="geometry" />
        </mxCell>
        <mxCell id="pcOHJDhmzTpbrukKIffP-10" style="edgeStyle=none;rounded=0;orthogonalLoop=1;jettySize=auto;html=1;exitX=0;exitY=1;exitDx=0;exitDy=0;entryX=0.5;entryY=0;entryDx=0;entryDy=0;" edge="1" parent="1" source="pcOHJDhmzTpbrukKIffP-2" target="pcOHJDhmzTpbrukKIffP-3">
          <mxGeometry relative="1" as="geometry" />
        </mxCell>
        <mxCell id="pcOHJDhmzTpbrukKIffP-11" style="edgeStyle=none;rounded=0;orthogonalLoop=1;jettySize=auto;html=1;exitX=1;exitY=1;exitDx=0;exitDy=0;" edge="1" parent="1" source="pcOHJDhmzTpbrukKIffP-2" target="pcOHJDhmzTpbrukKIffP-4">
          <mxGeometry relative="1" as="geometry" />
        </mxCell>
        <mxCell id="pcOHJDhmzTpbrukKIffP-2" value="Zeiterfassung" style="rounded=1;whiteSpace=wrap;html=1;" vertex="1" parent="1">
          <mxGeometry x="310" y="80" width="120" height="60" as="geometry" />
        </mxCell>
        <mxCell id="pcOHJDhmzTpbrukKIffP-12" style="edgeStyle=none;rounded=0;orthogonalLoop=1;jettySize=auto;html=1;exitX=0.5;exitY=1;exitDx=0;exitDy=0;" edge="1" parent="1" source="pcOHJDhmzTpbrukKIffP-3" target="pcOHJDhmzTpbrukKIffP-5">
          <mxGeometry relative="1" as="geometry" />
        </mxCell>
        <mxCell id="pcOHJDhmzTpbrukKIffP-13" style="edgeStyle=none;rounded=0;orthogonalLoop=1;jettySize=auto;html=1;exitX=0.5;exitY=1;exitDx=0;exitDy=0;" edge="1" parent="1" source="pcOHJDhmzTpbrukKIffP-3" target="pcOHJDhmzTpbrukKIffP-6">
          <mxGeometry relative="1" as="geometry" />
        </mxCell>
        <mxCell id="pcOHJDhmzTpbrukKIffP-14" style="edgeStyle=none;rounded=0;orthogonalLoop=1;jettySize=auto;html=1;exitX=0.5;exitY=1;exitDx=0;exitDy=0;" edge="1" parent="1" source="pcOHJDhmzTpbrukKIffP-3" target="pcOHJDhmzTpbrukKIffP-7">
          <mxGeometry relative="1" as="geometry" />
        </mxCell>
        <mxCell id="pcOHJDhmzTpbrukKIffP-3" value="Manuelle Zeiterfassung" style="rounded=1;whiteSpace=wrap;html=1;" vertex="1" parent="1">
          <mxGeometry x="220" y="170" width="120" height="60" as="geometry" />
        </mxCell>
        <mxCell id="pcOHJDhmzTpbrukKIffP-4" value="Automatische Zeiterfassung (Stoppuhr)" style="rounded=1;whiteSpace=wrap;html=1;" vertex="1" parent="1">
          <mxGeometry x="385" y="170" width="120" height="60" as="geometry" />
        </mxCell>
        <mxCell id="pcOHJDhmzTpbrukKIffP-5" value="Von" style="ellipse;whiteSpace=wrap;html=1;" vertex="1" parent="1">
          <mxGeometry x="200" y="240" width="60" height="30" as="geometry" />
        </mxCell>
        <mxCell id="pcOHJDhmzTpbrukKIffP-6" value="Bis&lt;span style=&quot;color: rgba(0, 0, 0, 0); font-family: monospace; font-size: 0px; text-align: start; text-wrap-mode: nowrap;&quot;&gt;%3CmxGraphModel%3E%3Croot%3E%3CmxCell%20id%3D%220%22%2F%3E%3CmxCell%20id%3D%221%22%20parent%3D%220%22%2F%3E%3CmxCell%20id%3D%222%22%20value%3D%22Von%22%20style%3D%22ellipse%3BwhiteSpace%3Dwrap%3Bhtml%3D1%3B%22%20vertex%3D%221%22%20parent%3D%221%22%3E%3CmxGeometry%20x%3D%22160%22%20y%3D%22250%22%20width%3D%2260%22%20height%3D%2230%22%20as%3D%22geometry%22%2F%3E%3C%2FmxCell%3E%3C%2Froot%3E%3C%2FmxGraphModel%3E&lt;/span&gt;" style="ellipse;whiteSpace=wrap;html=1;" vertex="1" parent="1">
          <mxGeometry x="240" y="260" width="60" height="30" as="geometry" />
        </mxCell>
        <mxCell id="pcOHJDhmzTpbrukKIffP-7" value="Pause" style="ellipse;whiteSpace=wrap;html=1;" vertex="1" parent="1">
          <mxGeometry x="300" y="250" width="60" height="30" as="geometry" />
        </mxCell>
        <mxCell id="pcOHJDhmzTpbrukKIffP-8" value="Start/Stop Button" style="ellipse;whiteSpace=wrap;html=1;" vertex="1" parent="1">
          <mxGeometry x="400" y="240" width="90" height="50" as="geometry" />
        </mxCell>
        <mxCell id="pcOHJDhmzTpbrukKIffP-9" value="Pausenerfassung" style="ellipse;whiteSpace=wrap;html=1;" vertex="1" parent="1">
          <mxGeometry x="490" y="230" width="130" height="50" as="geometry" />
        </mxCell>
      </root>
    </mxGraphModel>
  </diagram>
</mxfile>
